# 3ds Max Wavefront OBJ Exporter v0.97b - (c)2007 guruware
# ì¬‚µ‚½ƒtƒ@ƒCƒ‹ : 05.03.2019 11:26:21

mtllib ster.mtl

#
# object Cylinder001
#

v  -0.0000 1.1801 0.4707
v  -0.0000 0.0000 3.1878
v  2.8976 0.0000 4.4590
v  -2.8976 0.0000 4.4590
v  2.5840 0.0000 1.3103
v  -0.0000 0.0000 -4.4590
v  -1.5970 0.0000 -1.7274
v  1.5970 0.0000 -1.7274
v  -2.5840 0.0000 1.3103
v  4.6884 0.0000 -1.0526
v  -4.6884 0.0000 -1.0526
v  -0.0000 -1.1801 0.4707
# 12 vertices

vn -0.0000 1.0000 0.0000
vn 0.0000 -0.0000 1.0000
vn 0.5878 0.0000 0.8090
vn -0.5878 0.0000 0.8090
vn 0.9511 -0.0000 0.3090
vn 0.0000 0.0000 -1.0000
vn -0.5878 0.0000 -0.8090
vn 0.5878 0.0000 -0.8090
vn -0.9511 0.0000 0.3090
vn 0.9511 0.0000 -0.3090
vn -0.9511 0.0000 -0.3090
vn -0.0000 -1.0000 0.0000
# 12 vertex normals

vt 0.6756 0.6889 0.0000
vt 0.8149 0.5590 0.0000
vt 0.9995 0.6492 0.0000
vt 0.7379 0.3686 0.0000
vt 0.8421 0.7812 0.0000
vt 0.4369 0.9114 0.0000
vt 0.4866 0.7121 0.0000
vt 0.6392 0.8758 0.0000
vt 0.5952 0.5163 0.0000
vt 0.8135 0.9847 0.0000
vt 0.3902 0.5306 0.0000
vt 0.2791 0.3017 0.0000
vt 0.6043 0.3280 0.0000
vt 0.4236 0.4257 0.0000
vt 0.3546 0.6192 0.0000
vt 0.4416 0.2026 0.0000
vt 0.0892 0.2864 0.0000
vt 0.0313 0.0893 0.0000
vt 0.2350 0.1165 0.0000
vt 0.2059 0.4775 0.0000
vt 0.4045 0.0005 0.0000
vt 0.0005 0.4717 0.0000
# 22 texture coords

o Cylinder001
g Cylinder001
usemtl wire_061135006
s off
f 1/1/1 2/2/2 3/3/3 
f 4/4/4 2/2/2 1/1/1 
f 3/3/3 5/5/5 1/1/1 
f 1/1/1 6/6/6 7/7/7 
f 8/8/8 6/6/6 1/1/1 
f 1/1/1 9/9/9 4/4/4 
f 5/5/5 10/10/10 1/1/1 
f 10/10/10 8/8/8 1/1/1 
f 1/1/1 7/7/7 11/11/11 
f 1/1/1 11/11/11 9/9/9 
f 12/12/12 3/13/3 2/14/2 
f 4/15/4 12/12/12 2/14/2 
f 3/13/3 12/12/12 5/16/5 
f 12/12/12 7/17/7 6/18/6 
f 8/19/8 12/12/12 6/18/6 
f 12/12/12 4/15/4 9/20/9 
f 5/16/5 12/12/12 10/21/10 
f 10/21/10 12/12/12 8/19/8 
f 12/12/12 11/22/11 7/17/7 
f 12/12/12 9/20/9 11/22/11 
# 0 polygons - 20 triangles

